PathFileType  4	(X/Y/Z) C:\Users\antoi\Documents\MyRepositories\mobilecap\ResultsAnalysis
DataRate	CameraRate	NumFrames	NumMarkers	Units	OrigDataRate	OrigDataStartFrame	OrigNumFrames
100.0	100.0	6	51	mm	100.0	193	256
Frame#	Time	r_knee			r_shank_antsup			r_ankle			r_calc			r_5meta			r_toe			L_knee			L_shank_antsup			L_ankle			L_calc			L_5meta			L_toe			r_sh2			r_sh3			r_sh4			L_sh2			L_sh3			r_thigh1			r_thigh2			r_thigh3			r_thigh4			r_thigh5			L_thigh1			L_thigh2			L_thigh3			L_thigh4			r.ASIS			r.PSIS			L.ASIS			L.PSIS			C7			R_Shoulder			L_Shoulder			R_Sternum			L_Sternum			R_humerus			R_elbow_med			R_elbow_lat			R_forearm			R_wrist_radius			R_wrist_ulna			L_humerus			L_elbow_med			L_elbow_lat			L_forearm			L_wrist_radius			L_wrist_ulna			R_HJC			L_HJC			R_HJC_reg			L_HJC_reg			
		X1	Y1	Z1	X2	Y2	Z2	X3	Y3	Z3	X4	Y4	Z4	X5	Y5	Z5	X6	Y6	Z6	X7	Y7	Z7	X8	Y8	Z8	X9	Y9	Z9	X10	Y10	Z10	X11	Y11	Z11	X12	Y12	Z12	X13	Y13	Z13	X14	Y14	Z14	X15	Y15	Z15	X16	Y16	Z16	X17	Y17	Z17	X18	Y18	Z18	X19	Y19	Z19	X20	Y20	Z20	X21	Y21	Z21	X22	Y22	Z22	X23	Y23	Z23	X24	Y24	Z24	X25	Y25	Z25	X26	Y26	Z26	X27	Y27	Z27	X28	Y28	Z28	X29	Y29	Z29	X30	Y30	Z30	X31	Y31	Z31	X32	Y32	Z32	X33	Y33	Z33	X34	Y34	Z34	X35	Y35	Z35	X36	Y36	Z36	X37	Y37	Z37	X38	Y38	Z38	X39	Y39	Z39	X40	Y40	Z40	X41	Y41	Z41	X42	Y42	Z42	X43	Y43	Z43	X44	Y44	Z44	X45	Y45	Z45	X46	Y46	Z46	X47	Y47	Z47	X48	Y48	Z48	X49	Y49	Z49	X50	Y50	Z50	X51	Y51	Z51	

193	1.92000000	-20.92567	438.68366	-431.00793	-17.68895	335.52029	-432.89554	-271.45292	130.42703	-391.50264	-349.15558	110.51076	-440.38039	-187.13564	52.68695	-335.88313	-140.86072	69.44541	-386.72919	6.88534	472.81662	-738.04293	26.29749	375.86131	-730.01105	-208.20452	134.43940	-754.32310	-295.70041	117.03377	-703.12154	-137.36134	46.16466	-793.57309	-79.69775	60.00836	-743.34006	-89.94888	247.27843	-421.21480	-64.37169	377.89538	-390.43588	-141.04276	294.44646	-373.64767	-33.46630	431.40417	-770.14455	-102.07131	331.37754	-784.15182	-144.18175	682.50376	-398.42355	-73.46948	602.30136	-421.70381	-91.62435	544.77756	-388.94885	-224.35116	604.37969	-377.96872	-143.17209	523.54994	-400.76017	-109.31899	695.93237	-729.95447	-3.94164	606.22148	-712.12859	-171.57489	620.37169	-778.57768	-72.97592	532.76434	-753.52271	-157.27337	776.03318	-446.35364	-332.97842	883.55636	-523.44948	-154.23377	776.41494	-691.71517	-329.85719	883.79775	-621.16399	-111.44094	1269.38733	-605.97467	-61.05336	1279.45916	-480.08842	-47.44629	1271.46164	-699.94747	2.02487	1187.89985	-564.66125	10.37272	1185.69087	-613.75260	2.06198	1315.19887	-433.23989	197.80262	1298.48921	-351.21620	160.98468	1340.79672	-304.32491	147.83549	1414.03809	-361.71899	155.98779	1503.35221	-498.54539	191.61073	1525.14778	-470.94410	16.26685	1312.38858	-734.28709	212.47816	1332.36723	-785.11300	162.32763	1388.63066	-822.68127	148.84882	1437.02999	-765.45105	155.64434	1529.80792	-627.15789	183.84119	1561.99126	-659.11830	-266.49551	726.62583	-469.32097	-262.26551	727.34989	-658.83431	-252.96286	734.25520	-483.92261	-247.79209	734.65407	-645.79035	
194	1.93000000	-25.28439	443.61140	-430.03376	-20.87576	340.68732	-432.19013	-271.04072	131.10843	-392.07380	-348.21847	111.90468	-440.85205	-187.16562	52.43375	-336.16193	-140.62326	69.27825	-386.65844	5.42395	477.23171	-737.23747	25.03797	380.39231	-729.21287	-206.53503	136.19410	-754.44233	-293.95368	120.06330	-703.34267	-136.80123	46.55037	-793.58390	-79.15885	59.69605	-743.31044	-91.18899	250.87927	-420.99846	-68.30251	381.63101	-389.31963	-143.37033	296.30542	-373.32454	-35.26626	435.11050	-770.05290	-102.74005	334.26117	-783.84402	-139.13880	692.84418	-398.00152	-71.47782	609.85304	-420.92953	-91.96140	553.13904	-388.27105	-222.32993	617.81431	-377.80481	-144.25774	534.09272	-399.53606	-103.30734	704.50216	-729.36489	-1.03344	611.13942	-711.54382	-168.12255	630.87155	-777.73028	-72.37777	540.09943	-752.95632	-151.99770	791.50169	-445.42859	-328.02337	898.36034	-523.88821	-148.21924	790.24371	-690.41081	-324.62348	897.89063	-621.67615	-114.70662	1287.71534	-605.34499	-64.37076	1300.28662	-481.30940	-53.27136	1292.76836	-700.15715	2.27465	1210.27237	-566.44922	10.05210	1207.94064	-614.95628	-3.23746	1338.85124	-436.60149	191.61868	1331.55704	-350.95336	152.35570	1373.34715	-305.66863	139.37772	1446.30019	-362.93429	151.53699	1538.41685	-498.06698	185.34708	1560.81381	-468.81112	8.05820	1335.73613	-732.21763	201.06497	1364.44617	-787.91685	148.11446	1418.87997	-824.04057	136.31435	1467.85687	-767.04123	148.86698	1563.77991	-629.85382	173.88243	1596.03672	-664.16937	-261.28363	741.85943	-468.34152	-256.34730	741.22329	-657.83982	-247.50475	749.49967	-482.89790	-241.88521	748.72324	-644.50830	
195	1.94000000	-29.91716	449.62908	-428.91173	-24.35677	346.97606	-431.17822	-270.22823	132.38957	-392.36456	-346.86224	114.14721	-441.29509	-186.93879	52.39845	-336.26547	-140.17203	69.07101	-386.55600	3.80216	482.44182	-736.92166	23.39821	385.68884	-729.07594	-204.63574	138.28822	-754.70080	-291.91348	123.47132	-703.53697	-136.22951	47.03944	-793.59715	-78.48485	59.49082	-743.35881	-92.45239	255.36330	-420.65460	-72.69209	386.34768	-388.05807	-145.75137	299.41679	-373.25418	-37.63755	439.51387	-769.66212	-103.72332	337.74485	-783.65695	-134.25672	704.12037	-397.57578	-69.64312	618.40055	-420.36785	-92.45290	562.55239	-387.40941	-220.32128	632.30694	-377.79580	-145.43726	545.60792	-398.43323	-97.39697	713.52724	-728.81479	1.52842	616.60408	-711.01873	-164.79586	642.13910	-776.99782	-72.16173	548.16358	-752.52159	-146.38984	807.78913	-444.64342	-323.14561	913.45920	-524.46142	-142.24762	804.53256	-689.18178	-319.40384	912.43676	-622.51227	-118.29758	1306.53014	-604.46330	-67.63934	1321.39633	-482.24797	-58.55137	1313.53143	-698.10913	1.74749	1232.60683	-567.29395	8.74300	1229.45995	-615.32044	-8.67645	1362.96292	-439.18598	185.67281	1364.37232	-351.82063	144.25816	1404.68584	-308.12055	131.57550	1478.11348	-363.98108	147.31525	1574.18173	-497.02713	179.29153	1596.89538	-466.13002	-0.52541	1359.15478	-730.97436	189.42731	1395.71938	-790.18591	134.47318	1447.98334	-825.39641	124.16794	1498.17503	-768.94783	142.16701	1597.56833	-632.70407	164.77769	1629.63767	-669.42014	-255.79502	757.71982	-467.37210	-250.29492	755.45927	-656.84160	-241.79166	764.90536	-482.11659	-235.63657	763.22414	-643.42322	
196	1.95000000	-34.64615	457.13945	-427.65077	-27.97305	354.36547	-430.02048	-268.75178	134.46524	-392.14542	-344.97143	117.46320	-441.48500	-186.35807	52.68017	-336.15576	-139.36511	68.81910	-386.36456	1.85198	488.58091	-737.04880	21.29382	391.77152	-729.42943	-202.45356	140.72552	-755.11396	-289.66284	127.38695	-703.89332	-135.54484	47.70066	-793.72392	-77.55078	59.35103	-743.57233	-93.69644	261.03896	-419.78280	-77.30039	392.42731	-386.79093	-148.19046	303.96752	-372.74205	-40.49506	444.90467	-769.92065	-105.11993	341.89326	-783.56768	-129.47873	716.58766	-397.61442	-67.86648	628.30565	-420.13072	-92.79681	573.50073	-386.42532	-218.20306	648.06027	-377.71835	-146.43559	558.40081	-397.40983	-91.73792	723.12178	-728.44902	3.68048	622.81201	-710.79667	-161.73839	654.12713	-776.33590	-72.37434	557.01175	-752.20550	-140.65065	824.90532	-444.12948	-318.41207	928.92409	-525.27885	-136.39292	819.19591	-687.93906	-314.22227	927.34932	-623.43876	-121.99971	1325.94989	-603.25082	-70.85773	1342.72167	-482.97395	-63.89437	1334.79456	-695.65849	1.22247	1254.62277	-567.27288	6.66123	1251.27351	-615.59659	-14.10435	1387.35385	-441.14747	180.05765	1397.13714	-353.74947	136.84067	1435.30209	-311.37065	124.37755	1509.86771	-365.26533	143.40424	1610.17943	-496.17445	173.40703	1633.02668	-463.37406	-9.46095	1382.79719	-730.30566	177.81286	1426.42318	-792.42544	121.28660	1476.48657	-826.36336	112.35000	1528.23066	-770.59759	135.77370	1631.04321	-635.59064	156.40161	1662.64478	-674.30473	-250.16428	774.22339	-466.36941	-244.23867	770.02625	-655.79051	-236.00282	780.71862	-481.64863	-229.13953	778.13969	-642.46502	
197	1.96000000	-39.31985	466.26805	-426.22290	-31.64616	362.83100	-428.55761	-266.51938	137.15344	-391.75011	-342.38517	121.90396	-441.33805	-185.52819	53.21743	-335.95105	-138.10839	68.56974	-386.01178	-0.84325	495.39536	-737.05059	18.65319	398.50461	-729.79026	-199.95355	143.34610	-755.57442	-287.09346	131.74816	-704.32553	-134.72794	48.45366	-793.95042	-76.47281	59.15919	-743.91601	-94.92611	268.00583	-418.24521	-82.16102	399.88539	-385.40664	-150.90154	309.59407	-371.56622	-44.03686	450.90159	-770.29235	-107.03006	346.64423	-783.54159	-124.70207	730.17661	-398.33290	-66.25175	639.41231	-419.94212	-92.97619	585.96018	-385.50082	-215.76905	664.93163	-377.39223	-147.11117	572.51343	-396.27400	-86.44291	733.40736	-728.32323	5.32665	629.72437	-710.95601	-158.96018	666.81847	-775.87860	-73.03316	566.56500	-752.05801	-134.96556	842.87461	-443.81721	-313.75714	944.82252	-526.25059	-130.64265	834.71682	-686.95633	-309.10382	942.69904	-624.22924	-125.62033	1346.00921	-601.50308	-74.20191	1364.71857	-483.25691	-69.45179	1356.86147	-693.45348	0.39628	1277.11875	-566.95250	4.20852	1274.51641	-615.82374	-19.20856	1411.89746	-442.98162	174.80303	1429.81221	-356.23137	130.12214	1465.95687	-315.00062	117.66883	1541.97287	-366.99109	139.88642	1646.12416	-495.86148	167.82056	1668.89731	-460.91088	-18.11940	1406.72662	-729.75108	166.46037	1456.68357	-794.36513	108.53544	1504.81113	-826.65272	101.01351	1558.12812	-771.49262	130.36182	1664.13172	-638.51493	148.43603	1695.20700	-679.00618	-244.38508	791.32482	-465.49916	-238.13240	785.24033	-654.86016	-230.20234	797.17564	-481.39822	-222.58411	793.69904	-641.76823	
198	1.97000000	-44.03161	476.75703	-424.57029	-35.48517	372.49909	-426.43690	-263.59463	140.38357	-391.27346	-339.00678	127.39997	-440.91520	-184.53351	53.88818	-335.71939	-136.54143	68.25827	-385.50042	-4.27419	502.64697	-736.79895	15.34458	405.95144	-730.17567	-197.16007	146.06767	-756.09415	-284.11768	136.38574	-704.78001	-133.81054	49.16489	-794.13068	-75.39594	58.88989	-744.23415	-96.11830	276.09353	-416.26846	-87.29430	408.30868	-383.44391	-153.57250	316.01072	-370.13845	-48.61306	457.13132	-769.87469	-109.46003	351.74494	-783.43995	-120.04289	744.58654	-399.40420	-65.05783	651.12837	-419.55797	-93.12237	599.46852	-384.63226	-212.95529	682.59244	-376.74409	-147.64021	587.70364	-394.90876	-81.48298	744.26455	-728.36697	6.41723	637.05958	-711.29470	-156.47381	680.20784	-775.69574	-74.26128	576.76058	-752.17867	-129.31749	861.70763	-443.76756	-309.12768	961.21559	-527.15166	-124.85759	851.65596	-686.59740	-303.98005	958.62041	-624.90599	-129.21630	1366.65438	-599.31081	-77.61227	1387.55328	-483.14540	-74.97238	1379.39163	-691.38418	-1.75616	1300.72602	-566.83178	1.65462	1298.60023	-615.63192	-24.20589	1436.75579	-444.58462	169.83679	1462.41713	-359.17808	124.05795	1497.07078	-318.86981	111.53778	1574.58603	-369.25130	136.65512	1681.89034	-495.92077	162.74069	1704.44858	-459.16411	-26.25876	1431.02668	-729.09055	155.51297	1486.62240	-795.73155	96.26816	1533.10382	-826.19019	90.22190	1587.94626	-771.55587	126.12974	1696.83450	-641.15641	140.95031	1727.51206	-683.74469	-238.29644	808.96034	-465.04323	-231.80076	801.47359	-654.34747	-224.33885	814.41899	-481.51446	-215.90457	810.16677	-641.66830	
